<?xml version="1.0" encoding="utf-8"?>
<!-- Generator: Adobe Illustrator 23.0.2, SVG Export Plug-In . SVG Version: 6.00 Build 0)  -->
<svg version="1.1" id="Capa_1" xmlns="http://www.w3.org/2000/svg" xmlns:xlink="http://www.w3.org/1999/xlink" x="0px" y="0px"
	 viewBox="0 0 512 512" style="enable-background:new 0 0 512 512;" xml:space="preserve">
<style type="text/css">
	.st0{fill:#D51128;}
</style>
<g>
	<path class="st0" d="M444.2,188.2H324.2V67.9c0-37.4-30.6-67.8-68-67.8c-37.4,0-68,30.3-68,67.8v120.3H67.8
		C30.4,188.2,0,218.6,0,256c0,37.4,30.4,67.8,67.8,67.8h120.3v120.3c0,37.4,30.6,67.8,68,67.8c37.4,0,68-30.3,68-67.8V323.8l120.1,0
		c37.4,0,67.8-30.4,67.8-67.8C512,218.6,481.7,188.2,444.2,188.2z"/>
</g>
</svg>
